[hls @ 000001c383554f80] Opening 'https://tv.vodu.me:1995/kass/kass4/tracks-v1a1/2025/08/04/19/57/26-10420.ts' for reading
[hls @ 000001c383554f80] Opening 'https://tv.vodu.me:1995/kass/kass4/tracks-v1a1/2025/08/04/19/57/36-10420.ts' for reading
Input #0, hls, from 'https://tv.vodu.me:1995/kass/kass4/tracks-v1a1/mono.m3u8':
  Duration: N/A, start: 81915.402656, bitrate: N/A
  Program 0 
    Metadata:
      variant_bitrate : 0
  Stream #0:0: Video: h264 (High) ([27][0][0][0] / 0x001B), yuv420p(tv, bt709), 1920x1080 [SAR 1:1 DAR 16:9], 24 fps, 50 tbr, 90k tbn, start 81915.402656
    Metadata:
      variant_bitrate : 0
  Stream #0:1(ara): Audio: aac (LC) ([15][0][0][0] / 0x000F), 44100 Hz, stereo, fltp, start 81915.404633
    Metadata:
      variant_bitrate : 0
Stream mapping:
  Stream #0:0 -> #0:0 (copy)
  Stream #0:1 -> #0:1 (copy)
Output #0, hls, to 'live\channel_5\stream.m3u8':
  Metadata:
    encoder         : Lavf62.1.103
  Stream #0:0: Video: h264 (High) ([27][0][0][0] / 0x001B), yuv420p(tv, bt709), 1920x1080 [SAR 1:1 DAR 16:9], q=2-31, 24 fps, 50 tbr, 90k tbn
    Metadata:
      variant_bitrate : 0
  Stream #0:1(ara): Audio: aac (LC) ([15][0][0][0] / 0x000F), 44100 Hz, stereo, fltp
    Metadata:
      variant_bitrate : 0
Press [q] to stop, [?] for help
[vist#0:0/h264 @ 000001c38445ed40] Resumed reading at pts 0.000 with rate 1.050 after a lag of 0.500s
frame=   13 fps=0.0 q=-1.0 size=N/A time=00:00:00.50 bitrate=N/A speed=0.977x elapsed=0:00:00.51    frame=   25 fps= 24 q=-1.0 size=N/A time=00:00:01.04 bitrate=N/A speed=1.01x elapsed=0:00:01.02    frame=   39 fps= 25 q=-1.0 size=N/A time=00:00:01.62 bitrate=N/A speed=1.05x elapsed=0:00:01.54    frame=   52 fps= 25 q=-1.0 size=N/A time=00:00:02.16 bitrate=N/A speed=1.05x elapsed=0:00:02.06    frame=   65 fps= 25 q=-1.0 size=N/A time=00:00:02.66 bitrate=N/A speed=1.03x elapsed=0:00:02.57    frame=   78 fps= 25 q=-1.0 size=N/A time=00:00:03.24 bitrate=N/A speed=1.05x elapsed=0:00:03.09    frame=   91 fps= 25 q=-1.0 size=N/A time=00:00:03.74 bitrate=N/A speed=1.04x elapsed=0:00:03.60    frame=  104 fps= 25 q=-1.0 size=N/A time=00:00:04.28 bitrate=N/A speed=1.04x elapsed=0:00:04.12    frame=  116 fps= 25 q=-1.0 size=N/A time=00:00:04.84 bitrate=N/A speed=1.04x elapsed=0:00:04.64    frame=  130 fps= 25 q=-1.0 size=N/A time=00:00:05.42 bitrate=N/A speed=1.05x elapsed=0:00:05.15    frame=  142 fps= 25 q=-1.0 size=N/A time=00:00:05.92 bitrate=N/A speed=1.05x elapsed=0:00:05.66    frame=  156 fps= 25 q=-1.0 size=N/A time=00:00:06.46 bitrate=N/A speed=1.04x elapsed=0:00:06.18    frame=  168 fps= 25 q=-1.0 size=N/A time=00:00:07.00 bitrate=N/A speed=1.04x elapsed=0:00:06.70    frame=  182 fps= 25 q=-1.0 size=N/A time=00:00:07.54 bitrate=N/A speed=1.05x elapsed=0:00:07.21    frame=  195 fps= 25 q=-1.0 size=N/A time=00:00:08.08 bitrate=N/A speed=1.05x elapsed=0:00:07.73    frame=  208 fps= 25 q=-1.0 size=N/A time=00:00:08.66 bitrate=N/A speed=1.05x elapsed=0:00:08.24    frame=  221 fps= 25 q=-1.0 size=N/A time=00:00:09.16 bitrate=N/A speed=1.05x elapsed=0:00:08.76    frame=  233 fps= 25 q=-1.0 size=N/A time=00:00:09.70 bitrate=N/A speed=1.05x elapsed=0:00:09.27    frame=  247 fps= 25 q=-1.0 size=N/A time=00:00:10.28 bitrate=N/A speed=1.05x elapsed=0:00:09.79    [https @ 000001c38361a200] Opening 'https://tv.vodu.me:1995/kass/kass4/tracks-v1a1/2025/08/04/19/57/47-10400.ts' for reading
[hls @ 000001c383b7e680] Opening 'live\channel_5\stream0.ts' for writing
[hls @ 000001c383b7e680] Opening 'live\channel_5\stream.m3u8.tmp' for writing
frame=  259 fps= 25 q=-1.0 size=N/A time=00:00:10.74 bitrate=N/A speed=1.04x elapsed=0:00:10.31    frame=  271 fps= 25 q=-1.0 size=N/A time=00:00:11.28 bitrate=N/A speed=1.04x elapsed=0:00:10.82    frame=  284 fps= 25 q=-1.0 size=N/A time=00:00:11.84 bitrate=N/A speed=1.04x elapsed=0:00:11.34    frame=  296 fps= 25 q=-1.0 size=N/A time=00:00:12.34 bitrate=N/A speed=1.04x elapsed=0:00:11.85    frame=  309 fps= 25 q=-1.0 size=N/A time=00:00:12.84 bitrate=N/A speed=1.04x elapsed=0:00:12.37    frame=  321 fps= 25 q=-1.0 size=N/A time=00:00:13.34 bitrate=N/A speed=1.04x elapsed=0:00:12.88    frame=  333 fps= 25 q=-1.0 size=N/A time=00:00:13.88 bitrate=N/A speed=1.04x elapsed=0:00:13.40    frame=  346 fps= 25 q=-1.0 size=N/A time=00:00:14.42 bitrate=N/A speed=1.04x elapsed=0:00:13.91    frame=  358 fps= 25 q=-1.0 size=N/A time=00:00:14.92 bitrate=N/A speed=1.03x elapsed=0:00:14.43    frame=  371 fps= 25 q=-1.0 size=N/A time=00:00:15.42 bitrate=N/A speed=1.03x elapsed=0:00:14.95    frame=  383 fps= 25 q=-1.0 size=N/A time=00:00:15.92 bitrate=N/A speed=1.03x elapsed=0:00:15.46    frame=  395 fps= 25 q=-1.0 size=N/A time=00:00:16.46 bitrate=N/A speed=1.03x elapsed=0:00:15.98    frame=  407 fps= 25 q=-1.0 size=N/A time=00:00:16.96 bitrate=N/A speed=1.03x elapsed=0:00:16.49    frame=  420 fps= 25 q=-1.0 size=N/A time=00:00:17.50 bitrate=N/A speed=1.03x elapsed=0:00:17.01    frame=  433 fps= 25 q=-1.0 size=N/A time=00:00:18.00 bitrate=N/A speed=1.03x elapsed=0:00:17.52    frame=  445 fps= 25 q=-1.0 size=N/A time=00:00:18.50 bitrate=N/A speed=1.03x elapsed=0:00:18.04    frame=  457 fps= 25 q=-1.0 size=N/A time=00:00:19.04 bitrate=N/A speed=1.03x elapsed=0:00:18.56    frame=  470 fps= 25 q=-1.0 size=N/A time=00:00:19.54 bitrate=N/A speed=1.02x elapsed=0:00:19.07    frame=  482 fps= 25 q=-1.0 size=N/A time=00:00:20.08 bitrate=N/A speed=1.03x elapsed=0:00:19.59    frame=  495 fps= 25 q=-1.0 size=N/A time=00:00:20.58 bitrate=N/A speed=1.02x elapsed=0:00:20.10    [https @ 000001c383a87180] Opening 'https://tv.vodu.me:1995/kass/kass4/tracks-v1a1/2025/08/04/19/57/57-10420.ts' for reading
[hls @ 000001c383b7e680] Opening 'live\channel_5\stream1.ts' for writing
[hls @ 000001c383b7e680] Opening 'live\channel_5\stream.m3u8.tmp' for writing
frame=  507 fps= 25 q=-1.0 size=N/A time=00:00:21.12 bitrate=N/A speed=1.02x elapsed=0:00:20.62    frame=  519 fps= 25 q=-1.0 size=N/A time=00:00:21.62 bitrate=N/A speed=1.02x elapsed=0:00:21.13    frame=  531 fps= 25 q=-1.0 size=N/A time=00:00:22.12 bitrate=N/A speed=1.02x elapsed=0:00:21.65    frame=  544 fps= 25 q=-1.0 size=N/A time=00:00:22.66 bitrate=N/A speed=1.02x elapsed=0:00:22.16    frame=  556 fps= 25 q=-1.0 size=N/A time=00:00:23.16 bitrate=N/A speed=1.02x elapsed=0:00:22.68    frame=  569 fps= 25 q=-1.0 size=N/A time=00:00:23.70 bitrate=N/A speed=1.02x elapsed=0:00:23.20    frame=  581 fps= 24 q=-1.0 size=N/A time=00:00:24.20 bitrate=N/A speed=1.02x elapsed=0:00:23.71    frame=  594 fps= 25 q=-1.0 size=N/A time=00:00:24.70 bitrate=N/A speed=1.02x elapsed=0:00:24.23    frame=  606 fps= 24 q=-1.0 size=N/A time=00:00:25.24 bitrate=N/A speed=1.02x elapsed=0:00:24.74    frame=  618 fps= 24 q=-1.0 size=N/A time=00:00:25.74 bitrate=N/A speed=1.02x elapsed=0:00:25.26    frame=  630 fps= 24 q=-1.0 size=N/A time=00:00:26.24 bitrate=N/A speed=1.02x elapsed=0:00:25.77    frame=  642 fps= 24 q=-1.0 size=N/A time=00:00:26.74 bitrate=N/A speed=1.02x elapsed=0:00:26.29    frame=  655 fps= 24 q=-1.0 size=N/A time=00:00:27.28 bitrate=N/A speed=1.02x elapsed=0:00:26.81    frame=  667 fps= 24 q=-1.0 size=N/A time=00:00:27.78 bitrate=N/A speed=1.02x elapsed=0:00:27.32    frame=  679 fps= 24 q=-1.0 size=N/A time=00:00:28.28 bitrate=N/A speed=1.02x elapsed=0:00:27.84    frame=  692 fps= 24 q=-1.0 size=N/A time=00:00:28.84 bitrate=N/A speed=1.02x elapsed=0:00:28.35    frame=  704 fps= 24 q=-1.0 size=N/A time=00:00:29.34 bitrate=N/A speed=1.02x elapsed=0:00:28.87    frame=  717 fps= 24 q=-1.0 size=N/A time=00:00:29.88 bitrate=N/A speed=1.02x elapsed=0:00:29.38    frame=  730 fps= 24 q=-1.0 size=N/A time=00:00:30.38 bitrate=N/A speed=1.02x elapsed=0:00:29.90    frame=  741 fps= 24 q=-1.0 size=N/A time=00:00:30.88 bitrate=N/A speed=1.02x elapsed=0:00:30.41    [https @ 000001c38361a200] Opening 'https://tv.vodu.me:1995/kass/kass4/tracks-v1a1/2025/08/04/19/58/08-10420.ts' for reading
[hls @ 000001c383b7e680] Opening 'live\channel_5\stream2.ts' for writing
[hls @ 000001c383b7e680] Opening 'live\channel_5\stream.m3u8.tmp' for writing
frame=  754 fps= 24 q=-1.0 size=N/A time=00:00:31.42 bitrate=N/A speed=1.02x elapsed=0:00:30.93    frame=  767 fps= 24 q=-1.0 size=N/A time=00:00:31.92 bitrate=N/A speed=1.01x elapsed=0:00:31.45    frame=  779 fps= 24 q=-1.0 size=N/A time=00:00:32.46 bitrate=N/A speed=1.02x elapsed=0:00:31.96    frame=  791 fps= 24 q=-1.0 size=N/A time=00:00:32.96 bitrate=N/A speed=1.01x elapsed=0:00:32.48    frame=  804 fps= 24 q=-1.0 size=N/A time=00:00:33.50 bitrate=N/A speed=1.02x elapsed=0:00:32.99    frame=  816 fps= 24 q=-1.0 size=N/A time=00:00:34.00 bitrate=N/A speed=1.01x elapsed=0:00:33.51    frame=  828 fps= 24 q=-1.0 size=N/A time=00:00:34.50 bitrate=N/A speed=1.01x elapsed=0:00:34.02    frame=  841 fps= 24 q=-1.0 size=N/A time=00:00:35.04 bitrate=N/A speed=1.01x elapsed=0:00:34.54    frame=  853 fps= 24 q=-1.0 size=N/A time=00:00:35.54 bitrate=N/A speed=1.01x elapsed=0:00:35.06    frame=  866 fps= 24 q=-1.0 size=N/A time=00:00:36.08 bitrate=N/A speed=1.01x elapsed=0:00:35.57    frame=  878 fps= 24 q=-1.0 size=N/A time=00:00:36.58 bitrate=N/A speed=1.01x elapsed=0:00:36.09    frame=  890 fps= 24 q=-1.0 size=N/A time=00:00:37.08 bitrate=N/A speed=1.01x elapsed=0:00:36.60    frame=  902 fps= 24 q=-1.0 size=N/A time=00:00:37.58 bitrate=N/A speed=1.01x elapsed=0:00:37.12    frame=  915 fps= 24 q=-1.0 size=N/A time=00:00:38.12 bitrate=N/A speed=1.01x elapsed=0:00:37.63    frame=  928 fps= 24 q=-1.0 size=N/A time=00:00:38.66 bitrate=N/A speed=1.01x elapsed=0:00:38.15    frame=  940 fps= 24 q=-1.0 size=N/A time=00:00:39.16 bitrate=N/A speed=1.01x elapsed=0:00:38.67    frame=  952 fps= 24 q=-1.0 size=N/A time=00:00:39.66 bitrate=N/A speed=1.01x elapsed=0:00:39.18    frame=  965 fps= 24 q=-1.0 size=N/A time=00:00:40.16 bitrate=N/A speed=1.01x elapsed=0:00:39.70    frame=  977 fps= 24 q=-1.0 size=N/A time=00:00:40.70 bitrate=N/A speed=1.01x elapsed=0:00:40.21    frame=  990 fps= 24 q=-1.0 size=N/A time=00:00:41.24 bitrate=N/A speed=1.01x elapsed=0:00:40.73    [https @ 000001c384455fc0] Opening 'https://tv.vodu.me:1995/kass/kass4/tracks-v1a1/mono.m3u8' for reading
[https @ 000001c383a87180] Opening 'https://tv.vodu.me:1995/kass/kass4/tracks-v1a1/2025/08/04/19/58/18-10420.ts' for reading
[hls @ 000001c383b7e680] Opening 'live\channel_5\stream3.ts' for writing
[hls @ 000001c383b7e680] Opening 'live\channel_5\stream.m3u8.tmp' for writing
frame= 1002 fps= 24 q=-1.0 size=N/A time=00:00:41.74 bitrate=N/A speed=1.01x elapsed=0:00:41.24    frame= 1014 fps= 24 q=-1.0 size=N/A time=00:00:42.24 bitrate=N/A speed=1.01x elapsed=0:00:41.76    frame= 1026 fps= 24 q=-1.0 size=N/A time=00:00:42.74 bitrate=N/A speed=1.01x elapsed=0:00:42.27    frame= 1039 fps= 24 q=-1.0 size=N/A time=00:00:43.24 bitrate=N/A speed=1.01x elapsed=0:00:42.79    frame= 1051 fps= 24 q=-1.0 size=N/A time=00:00:43.78 bitrate=N/A speed=1.01x elapsed=0:00:43.31    frame= 1063 fps= 24 q=-1.0 size=N/A time=00:00:44.28 bitrate=N/A speed=1.01x elapsed=0:00:43.82    frame= 1075 fps= 24 q=-1.0 size=N/A time=00:00:44.78 bitrate=N/A speed=1.01x elapsed=0:00:44.34    frame= 1088 fps= 24 q=-1.0 size=N/A time=00:00:45.34 bitrate=N/A speed=1.01x elapsed=0:00:44.85    frame= 1101 fps= 24 q=-1.0 size=N/A time=00:00:45.84 bitrate=N/A speed=1.01x elapsed=0:00:45.37    frame= 1113 fps= 24 q=-1.0 size=N/A time=00:00:46.38 bitrate=N/A speed=1.01x elapsed=0:00:45.88    frame= 1125 fps= 24 q=-1.0 size=N/A time=00:00:46.88 bitrate=N/A speed=1.01x elapsed=0:00:46.40    frame= 1138 fps= 24 q=-1.0 size=N/A time=00:00:47.38 bitrate=N/A speed=1.01x elapsed=0:00:46.92    frame= 1150 fps= 24 q=-1.0 size=N/A time=00:00:47.92 bitrate=N/A speed=1.01x elapsed=0:00:47.43    frame= 1163 fps= 24 q=-1.0 size=N/A time=00:00:48.42 bitrate=N/A speed=1.01x elapsed=0:00:47.95    frame= 1175 fps= 24 q=-1.0 size=N/A time=00:00:48.96 bitrate=N/A speed=1.01x elapsed=0:00:48.46    frame= 1188 fps= 24 q=-1.0 size=N/A time=00:00:49.46 bitrate=N/A speed=1.01x elapsed=0:00:48.98    frame= 1199 fps= 24 q=-1.0 size=N/A time=00:00:49.96 bitrate=N/A speed=1.01x elapsed=0:00:49.49    frame= 1212 fps= 24 q=-1.0 size=N/A time=00:00:50.50 bitrate=N/A speed=1.01x elapsed=0:00:50.01    frame= 1224 fps= 24 q=-1.0 size=N/A time=00:00:51.00 bitrate=N/A speed=1.01x elapsed=0:00:50.52    frame= 1237 fps= 24 q=-1.0 size=N/A time=00:00:51.54 bitrate=N/A speed=1.01x elapsed=0:00:51.04    [https @ 000001c38361a200] Opening 'https://tv.vodu.me:1995/kass/kass4/tracks-v1a1/2025/08/04/19/58/29-10420.ts' for reading
frame= 1249 fps= 24 q=-1.0 size=N/A time=00:00:52.04 bitrate=N/A speed=1.01x elapsed=0:00:51.56    [hls @ 000001c383b7e680] Opening 'live\channel_5\stream4.ts' for writing
[hls @ 000001c383b7e680] Opening 'live\channel_5\stream.m3u8.tmp' for writing
frame= 1261 fps= 24 q=-1.0 size=N/A time=00:00:52.54 bitrate=N/A speed=1.01x elapsed=0:00:52.07    frame= 1274 fps= 24 q=-1.0 size=N/A time=00:00:53.08 bitrate=N/A speed=1.01x elapsed=0:00:52.59    frame= 1286 fps= 24 q=-1.0 size=N/A time=00:00:53.58 bitrate=N/A speed=1.01x elapsed=0:00:53.10    frame= 1299 fps= 24 q=-1.0 size=N/A time=00:00:54.12 bitrate=N/A speed=1.01x elapsed=0:00:53.62    frame= 1312 fps= 24 q=-1.0 size=N/A time=00:00:54.62 bitrate=N/A speed=1.01x elapsed=0:00:54.13    frame= 1323 fps= 24 q=-1.0 size=N/A time=00:00:55.12 bitrate=N/A speed=1.01x elapsed=0:00:54.65    frame= 1336 fps= 24 q=-1.0 size=N/A time=00:00:55.66 bitrate=N/A speed=1.01x elapsed=0:00:55.17    frame= 1348 fps= 24 q=-1.0 size=N/A time=00:00:56.16 bitrate=N/A speed=1.01x elapsed=0:00:55.68    frame= 1361 fps= 24 q=-1.0 size=N/A time=00:00:56.70 bitrate=N/A speed=1.01x elapsed=0:00:56.20    frame= 1373 fps= 24 q=-1.0 size=N/A time=00:00:57.20 bitrate=N/A speed=1.01x elapsed=0:00:56.71    frame= 1386 fps= 24 q=-1.0 size=N/A time=00:00:57.70 bitrate=N/A speed=1.01x elapsed=0:00:57.23    frame= 1397 fps= 24 q=-1.0 size=N/A time=00:00:58.20 bitrate=N/A speed=1.01x elapsed=0:00:57.74    frame= 1410 fps= 24 q=-1.0 size=N/A time=00:00:58.74 bitrate=N/A speed=1.01x elapsed=0:00:58.26    frame= 1422 fps= 24 q=-1.0 size=N/A time=00:00:59.24 bitrate=N/A speed=1.01x elapsed=0:00:58.77    frame= 1434 fps= 24 q=-1.0 size=N/A time=00:00:59.74 bitrate=N/A speed=1.01x elapsed=0:00:59.29    frame= 1447 fps= 24 q=-1.0 size=N/A time=00:01:00.28 bitrate=N/A speed=1.01x elapsed=0:00:59.81    frame= 1459 fps= 24 q=-1.0 size=N/A time=00:01:00.78 bitrate=N/A speed=1.01x elapsed=0:01:00.32    frame= 1472 fps= 24 q=-1.0 size=N/A time=00:01:01.34 bitrate=N/A speed=1.01x elapsed=0:01:00.84    frame= 1484 fps= 24 q=-1.0 size=N/A time=00:01:01.84 bitrate=N/A speed=1.01x elapsed=0:01:01.35    frame= 1497 fps= 24 q=-1.0 size=N/A time=00:01:02.34 bitrate=N/A speed=1.01x elapsed=0:01:01.87    [https @ 000001c384455fc0] Opening 'https://tv.vodu.me:1995/kass/kass4/tracks-v1a1/mono.m3u8' for reading
[https @ 000001c383a87180] Opening 'https://tv.vodu.me:1995/kass/kass4/tracks-v1a1/2025/08/04/19/58/39-10420.ts' for reading
[hls @ 000001c383b7e680] Opening 'live\channel_5\stream5.ts' for writing
[hls @ 000001c383b7e680] Opening 'live\channel_5\stream.m3u8.tmp' for writing
frame= 1509 fps= 24 q=-1.0 size=N/A time=00:01:02.88 bitrate=N/A speed=1.01x elapsed=0:01:02.38    frame= 1521 fps= 24 q=-1.0 size=N/A time=00:01:03.38 bitrate=N/A speed=1.01x elapsed=0:01:02.90    frame= 1534 fps= 24 q=-1.0 size=N/A time=00:01:03.92 bitrate=N/A speed=1.01x elapsed=0:01:03.41    frame= 1547 fps= 24 q=-1.0 size=N/A time=00:01:04.42 bitrate=N/A speed=1.01x elapsed=0:01:03.93    frame= 1559 fps= 24 q=-1.0 size=N/A time=00:01:04.92 bitrate=N/A speed=1.01x elapsed=0:01:04.45    frame= 1570 fps= 24 q=-1.0 size=N/A time=00:01:05.42 bitrate=N/A speed=1.01x elapsed=0:01:04.96    frame= 1583 fps= 24 q=-1.0 size=N/A time=00:01:05.96 bitrate=N/A speed=1.01x elapsed=0:01:05.48    frame= 1596 fps= 24 q=-1.0 size=N/A time=00:01:06.50 bitrate=N/A speed=1.01x elapsed=0:01:05.99    frame= 1608 fps= 24 q=-1.0 size=N/A time=00:01:07.00 bitrate=N/A speed=1.01x elapsed=0:01:06.51    frame= 1621 fps= 24 q=-1.0 size=N/A time=00:01:07.50 bitrate=N/A speed=1.01x elapsed=0:01:07.02    frame= 1632 fps= 24 q=-1.0 size=N/A time=00:01:08.00 bitrate=N/A speed=1.01x elapsed=0:01:07.54    frame= 1645 fps= 24 q=-1.0 size=N/A time=00:01:08.54 bitrate=N/A speed=1.01x elapsed=0:01:08.06    frame= 1658 fps= 24 q=-1.0 size=N/A time=00:01:09.08 bitrate=N/A speed=1.01x elapsed=0:01:08.57    frame= 1670 fps= 24 q=-1.0 size=N/A time=00:01:09.58 bitrate=N/A speed=1.01x elapsed=0:01:09.09    frame= 1683 fps= 24 q=-1.0 size=N/A time=00:01:10.08 bitrate=N/A speed=1.01x elapsed=0:01:09.60    frame= 1695 fps= 24 q=-1.0 size=N/A time=00:01:10.58 bitrate=N/A speed=1.01x elapsed=0:01:10.12    frame= 1707 fps= 24 q=-1.0 size=N/A time=00:01:11.12 bitrate=N/A speed=1.01x elapsed=0:01:10.63    frame= 1719 fps= 24 q=-1.0 size=N/A time=00:01:11.62 bitrate=N/A speed=1.01x elapsed=0:01:11.15    frame= 1732 fps= 24 q=-1.0 size=N/A time=00:01:12.16 bitrate=N/A speed=1.01x elapsed=0:01:11.66    frame= 1745 fps= 24 q=-1.0 size=N/A time=00:01:12.66 bitrate=N/A speed=1.01x elapsed=0:01:12.18    [https @ 000001c384455fc0] Opening 'https://tv.vodu.me:1995/kass/kass4/tracks-v1a1/mono.m3u8' for reading
[https @ 000001c38361a200] Opening 'https://tv.vodu.me:1995/kass/kass4/tracks-v1a1/2025/08/04/19/58/49-10400.ts' for reading
[hls @ 000001c383b7e680] Opening 'live\channel_5\stream6.ts' for writing
[hls @ 000001c383b7e680] Opening 'live\channel_5\stream.m3u8.tmp' for writing
frame= 1757 fps= 24 q=-1.0 size=N/A time=00:01:13.16 bitrate=N/A speed=1.01x elapsed=0:01:12.70    frame= 1769 fps= 24 q=-1.0 size=N/A time=00:01:13.70 bitrate=N/A speed=1.01x elapsed=0:01:13.21    frame= 1781 fps= 24 q=-1.0 size=N/A time=00:01:14.20 bitrate=N/A speed=1.01x elapsed=0:01:13.73    frame= 1794 fps= 24 q=-1.0 size=N/A time=00:01:14.74 bitrate=N/A speed=1.01x elapsed=0:01:14.24    frame= 1806 fps= 24 q=-1.0 size=N/A time=00:01:15.24 bitrate=N/A speed=1.01x elapsed=0:01:14.76    frame= 1818 fps= 24 q=-1.0 size=N/A time=00:01:15.74 bitrate=N/A speed=1.01x elapsed=0:01:15.27    frame= 1831 fps= 24 q=-1.0 size=N/A time=00:01:16.28 bitrate=N/A speed=1.01x elapsed=0:01:15.79    frame= 1843 fps= 24 q=-1.0 size=N/A time=00:01:16.78 bitrate=N/A speed=1.01x elapsed=0:01:16.31    frame= 1856 fps= 24 q=-1.0 size=N/A time=00:01:17.28 bitrate=N/A speed=1.01x elapsed=0:01:16.82    frame= 1868 fps= 24 q=-1.0 size=N/A time=00:01:17.78 bitrate=N/A speed=1.01x elapsed=0:01:17.34    frame= 1880 fps= 24 q=-1.0 size=N/A time=00:01:18.34 bitrate=N/A speed=1.01x elapsed=0:01:17.85    frame= 1893 fps= 24 q=-1.0 size=N/A time=00:01:18.88 bitrate=N/A speed=1.01x elapsed=0:01:18.37    frame= 1905 fps= 24 q=-1.0 size=N/A time=00:01:19.38 bitrate=N/A speed=1.01x elapsed=0:01:18.88    frame= 1918 fps= 24 q=-1.0 size=N/A time=00:01:19.88 bitrate=N/A speed=1.01x elapsed=0:01:19.40    frame= 1930 fps= 24 q=-1.0 size=N/A time=00:01:20.38 bitrate=N/A speed=1.01x elapsed=0:01:19.91    frame= 1942 fps= 24 q=-1.0 size=N/A time=00:01:20.92 bitrate=N/A speed=1.01x elapsed=0:01:20.43    frame= 1954 fps= 24 q=-1.0 size=N/A time=00:01:21.42 bitrate=N/A speed=1.01x elapsed=0:01:20.95    frame= 1967 fps= 24 q=-1.0 size=N/A time=00:01:21.96 bitrate=N/A speed=1.01x elapsed=0:01:21.47    frame= 1980 fps= 24 q=-1.0 size=N/A time=00:01:22.46 bitrate=N/A speed=1.01x elapsed=0:01:21.97    frame= 1992 fps= 24 q=-1.0 size=N/A time=00:01:23.00 bitrate=N/A speed=1.01x elapsed=0:01:22.51    [https @ 000001c383a87180] Opening 'https://tv.vodu.me:1995/kass/kass4/tracks-v1a1/2025/08/04/19/59/00-10420.ts' for reading
[https @ 000001c384455fc0] Opening 'https://tv.vodu.me:1995/kass/kass4/tracks-v1a1/mono.m3u8' for reading
[hls @ 000001c383b7e680] Opening 'live\channel_5\stream7.ts' for writing
[hls @ 000001c383b7e680] Opening 'live\channel_5\stream.m3u8.tmp' for writing
frame= 2005 fps= 24 q=-1.0 size=N/A time=00:01:23.50 bitrate=N/A speed=1.01x elapsed=0:01:23.02    frame= 2016 fps= 24 q=-1.0 size=N/A time=00:01:24.00 bitrate=N/A speed=1.01x elapsed=0:01:23.53    frame= 2029 fps= 24 q=-1.0 size=N/A time=00:01:24.54 bitrate=N/A speed=1.01x elapsed=0:01:24.05    frame= 2041 fps= 24 q=-1.0 size=N/A time=00:01:25.04 bitrate=N/A speed=1.01x elapsed=0:01:24.57    frame= 2054 fps= 24 q=-1.0 size=N/A time=00:01:25.58 bitrate=N/A speed=1.01x elapsed=0:01:25.08    frame= 2066 fps= 24 q=-1.0 size=N/A time=00:01:26.08 bitrate=N/A speed=1.01x elapsed=0:01:25.60    frame= 2078 fps= 24 q=-1.0 size=N/A time=00:01:26.58 bitrate=N/A speed=1.01x elapsed=0:01:26.11    frame= 2091 fps= 24 q=-1.0 size=N/A time=00:01:27.12 bitrate=N/A speed=1.01x elapsed=0:01:26.63    frame= 2103 fps= 24 q=-1.0 size=N/A time=00:01:27.62 bitrate=N/A speed=1.01x elapsed=0:01:27.14    frame= 2116 fps= 24 q=-1.0 size=N/A time=00:01:28.16 bitrate=N/A speed=1.01x elapsed=0:01:27.66    frame= 2128 fps= 24 q=-1.0 size=N/A time=00:01:28.66 bitrate=N/A speed=1.01x elapsed=0:01:28.18    frame= 2140 fps= 24 q=-1.0 size=N/A time=00:01:29.16 bitrate=N/A speed=1.01x elapsed=0:01:28.69    frame= 2153 fps= 24 q=-1.0 size=N/A time=00:01:29.70 bitrate=N/A speed=1.01x elapsed=0:01:29.21    frame= 2165 fps= 24 q=-1.0 size=N/A time=00:01:30.20 bitrate=N/A speed=1.01x elapsed=0:01:29.72    frame= 2178 fps= 24 q=-1.0 size=N/A time=00:01:30.74 bitrate=N/A speed=1.01x elapsed=0:01:30.24    frame= 2190 fps= 24 q=-1.0 size=N/A time=00:01:31.24 bitrate=N/A speed=1.01x elapsed=0:01:30.75    frame= 2202 fps= 24 q=-1.0 size=N/A time=00:01:31.74 bitrate=N/A speed=1.01x elapsed=0:01:31.27    frame= 2215 fps= 24 q=-1.0 size=N/A time=00:01:32.28 bitrate=N/A speed=1.01x elapsed=0:01:31.78    frame= 2227 fps= 24 q=-1.0 size=N/A time=00:01:32.78 bitrate=N/A speed=1.01x elapsed=0:01:32.30    frame= 2240 fps= 24 q=-1.0 size=N/A time=00:01:33.34 bitrate=N/A speed=1.01x elapsed=0:01:32.82    [https @ 000001c38361a200] Opening 'https://tv.vodu.me:1995/kass/kass4/tracks-v1a1/2025/08/04/19/59/10-10420.ts' for reading
[hls @ 000001c383b7e680] Opening 'live\channel_5\stream8.ts' for writing
[hls @ 000001c383b7e680] Opening 'live\channel_5\stream.m3u8.tmp' for writing
frame= 2251 fps= 24 q=-1.0 size=N/A time=00:01:33.78 bitrate=N/A speed=   1x elapsed=0:01:33.33    frame= 2264 fps= 24 q=-1.0 size=N/A time=00:01:34.34 bitrate=N/A speed=1.01x elapsed=0:01:33.85    frame= 2276 fps= 24 q=-1.0 size=N/A time=00:01:34.84 bitrate=N/A speed=1.01x elapsed=0:01:34.36    frame= 2289 fps= 24 q=-1.0 size=N/A time=00:01:35.38 bitrate=N/A speed=1.01x elapsed=0:01:34.88    frame= 2301 fps= 24 q=-1.0 size=N/A time=00:01:35.88 bitrate=N/A speed=1.01x elapsed=0:01:35.39    frame= 2313 fps= 24 q=-1.0 size=N/A time=00:01:36.38 bitrate=N/A speed=   1x elapsed=0:01:35.91    frame= 2326 fps= 24 q=-1.0 size=N/A time=00:01:36.92 bitrate=N/A speed=1.01x elapsed=0:01:36.42    frame= 2338 fps= 24 q=-1.0 size=N/A time=00:01:37.42 bitrate=N/A speed=   1x elapsed=0:01:36.94    frame= 2351 fps= 24 q=-1.0 size=N/A time=00:01:37.96 bitrate=N/A speed=1.01x elapsed=0:01:37.46    frame= 2363 fps= 24 q=-1.0 size=N/A time=00:01:38.46 bitrate=N/A speed=   1x elapsed=0:01:37.97    frame= 2376 fps= 24 q=-1.0 size=N/A time=00:01:38.96 bitrate=N/A speed=   1x elapsed=0:01:38.50    frame= 2388 fps= 24 q=-1.0 size=N/A time=00:01:39.50 bitrate=N/A speed=   1x elapsed=0:01:39.00    frame= 2400 fps= 24 q=-1.0 size=N/A time=00:01:40.00 bitrate=N/A speed=   1x elapsed=0:01:39.52    frame= 2413 fps= 24 q=-1.0 size=N/A time=00:01:40.54 bitrate=N/A speed=   1x elapsed=0:01:40.04    frame= 2425 fps= 24 q=-1.0 size=N/A time=00:01:41.04 bitrate=N/A speed=   1x elapsed=0:01:40.56    frame= 2437 fps= 24 q=-1.0 size=N/A time=00:01:41.54 bitrate=N/A speed=   1x elapsed=0:01:41.07    frame= 2450 fps= 24 q=-1.0 size=N/A time=00:01:42.08 bitrate=N/A speed=   1x elapsed=0:01:41.59    frame= 2462 fps= 24 q=-1.0 size=N/A time=00:01:42.58 bitrate=N/A speed=   1x elapsed=0:01:42.10    frame= 2475 fps= 24 q=-1.0 size=N/A time=00:01:43.12 bitrate=N/A speed=   1x elapsed=0:01:42.62    frame= 2487 fps= 24 q=-1.0 size=N/A time=00:01:43.62 bitrate=N/A speed=   1x elapsed=0:01:43.13    [https @ 000001c384455fc0] Opening 'https://tv.vodu.me:1995/kass/kass4/tracks-v1a1/mono.m3u8' for reading
frame= 2499 fps= 24 q=-1.0 size=N/A time=00:01:44.12 bitrate=N/A speed=   1x elapsed=0:01:43.65    [https @ 000001c383a87180] Opening 'https://tv.vodu.me:1995/kass/kass4/tracks-v1a1/2025/08/04/19/59/21-10420.ts' for reading
[hls @ 000001c383b7e680] Opening 'live\channel_5\stream9.ts' for writing
[hls @ 000001c383b7e680] Opening 'live\channel_5\stream.m3u8.tmp' for writing
frame= 2512 fps= 24 q=-1.0 size=N/A time=00:01:44.66 bitrate=N/A speed=   1x elapsed=0:01:44.17    frame= 2525 fps= 24 q=-1.0 size=N/A time=00:01:45.16 bitrate=N/A speed=   1x elapsed=0:01:44.68    frame= 2537 fps= 24 q=-1.0 size=N/A time=00:01:45.66 bitrate=N/A speed=   1x elapsed=0:01:45.20    frame= 2549 fps= 24 q=-1.0 size=N/A time=00:01:46.20 bitrate=N/A speed=   1x elapsed=0:01:45.71    frame= 2562 fps= 24 q=-1.0 size=N/A time=00:01:46.70 bitrate=N/A speed=   1x elapsed=0:01:46.23    frame= 2574 fps= 24 q=-1.0 size=N/A time=00:01:47.24 bitrate=N/A speed=   1x elapsed=0:01:46.74    frame= 2586 fps= 24 q=-1.0 size=N/A time=00:01:47.74 bitrate=N/A speed=   1x elapsed=0:01:47.26    frame= 2598 fps= 24 q=-1.0 size=N/A time=00:01:48.24 bitrate=N/A speed=   1x elapsed=0:01:47.77    frame= 2610 fps= 24 q=-1.0 size=N/A time=00:01:48.74 bitrate=N/A speed=   1x elapsed=0:01:48.29    frame= 2622 fps= 24 q=-1.0 size=N/A time=00:01:49.24 bitrate=N/A speed=   1x elapsed=0:01:48.81    frame= 2635 fps= 24 q=-1.0 size=N/A time=00:01:49.78 bitrate=N/A speed=   1x elapsed=0:01:49.32    frame= 2648 fps= 24 q=-1.0 size=N/A time=00:01:50.34 bitrate=N/A speed=   1x elapsed=0:01:49.84    frame= 2660 fps= 24 q=-1.0 size=N/A time=00:01:50.84 bitrate=N/A speed=   1x elapsed=0:01:50.35    frame= 2672 fps= 24 q=-1.0 size=N/A time=00:01:51.34 bitrate=N/A speed=   1x elapsed=0:01:50.87    frame= 2685 fps= 24 q=-1.0 size=N/A time=00:01:51.88 bitrate=N/A speed=   1x elapsed=0:01:51.38    frame= 2697 fps= 24 q=-1.0 size=N/A time=00:01:52.38 bitrate=N/A speed=   1x elapsed=0:01:51.90    frame= 2710 fps= 24 q=-1.0 size=N/A time=00:01:52.92 bitrate=N/A speed=   1x elapsed=0:01:52.42    frame= 2722 fps= 24 q=-1.0 size=N/A time=00:01:53.42 bitrate=N/A speed=   1x elapsed=0:01:52.93    frame= 2734 fps= 24 q=-1.0 size=N/A time=00:01:53.92 bitrate=N/A speed=   1x elapsed=0:01:53.44    frame= 2747 fps= 24 q=-1.0 size=N/A time=00:01:54.42 bitrate=N/A speed=   1x elapsed=0:01:53.96    [hls @ 000001c383b7e680] Opening 'live\channel_5\stream10.ts' for writing
[hls @ 000001c383b7e680] Opening 'live\channel_5\stream.m3u8.tmp' for writing
frame= 2759 fps= 24 q=-1.0 size=N/A time=00:01:54.96 bitrate=N/A speed=   1x elapsed=0:01:54.48    frame= 2772 fps= 24 q=-1.0 size=N/A time=00:01:55.46 bitrate=N/A speed=   1x elapsed=0:01:55.00    frame= 2784 fps= 24 q=-1.0 size=N/A time=00:01:56.00 bitrate=N/A speed=   1x elapsed=0:01:55.50    frame= 2796 fps= 24 q=-1.0 size=N/A time=00:01:56.50 bitrate=N/A speed=   1x elapsed=0:01:56.02    frame= 2809 fps= 24 q=-1.0 size=N/A time=00:01:57.04 bitrate=N/A speed=   1x elapsed=0:01:56.54    frame= 2821 fps= 24 q=-1.0 size=N/A time=00:01:57.54 bitrate=N/A speed=   1x elapsed=0:01:57.06    frame= 2834 fps= 24 q=-1.0 size=N/A time=00:01:58.04 bitrate=N/A speed=   1x elapsed=0:01:57.57    frame= 2846 fps= 24 q=-1.0 size=N/A time=00:01:58.58 bitrate=N/A speed=   1x elapsed=0:01:58.09    frame= 2859 fps= 24 q=-1.0 size=N/A time=00:01:59.08 bitrate=N/A speed=   1x elapsed=0:01:58.60    frame= 2871 fps= 24 q=-1.0 size=N/A time=00:01:59.62 bitrate=N/A speed=   1x elapsed=0:01:59.12    frame= 2883 fps= 24 q=-1.0 size=N/A time=00:02:00.12 bitrate=N/A speed=   1x elapsed=0:01:59.63    frame= 2895 fps= 24 q=-1.0 size=N/A time=00:02:00.62 bitrate=N/A speed=   1x elapsed=0:02:00.15    frame= 2908 fps= 24 q=-1.0 size=N/A time=00:02:01.16 bitrate=N/A speed=   1x elapsed=0:02:00.66    frame= 2920 fps= 24 q=-1.0 size=N/A time=00:02:01.66 bitrate=N/A speed=   1x elapsed=0:02:01.18    frame= 2933 fps= 24 q=-1.0 size=N/A time=00:02:02.20 bitrate=N/A speed=   1x elapsed=0:02:01.70    frame= 2945 fps= 24 q=-1.0 size=N/A time=00:02:02.70 bitrate=N/A speed=   1x elapsed=0:02:02.21    frame= 2957 fps= 24 q=-1.0 size=N/A time=00:02:03.20 bitrate=N/A speed=   1x elapsed=0:02:02.73    frame= 2970 fps= 24 q=-1.0 size=N/A time=00:02:03.74 bitrate=N/A speed=   1x elapsed=0:02:03.24    frame= 2982 fps= 24 q=-1.0 size=N/A time=00:02:04.24 bitrate=N/A speed=   1x elapsed=0:02:03.76    frame= 2994 fps= 24 q=-1.0 size=N/A time=00:02:04.74 bitrate=N/A speed=   1x elapsed=0:02:04.27    [https @ 000001c384455fc0] Opening 'https://tv.vodu.me:1995/kass/kass4/tracks-v1a1/mono.m3u8' for reading
[https @ 000001c383a87180] Opening 'https://tv.vodu.me:1995/kass/kass4/tracks-v1a1/2025/08/04/19/59/31-14664.ts' for reading
[hls @ 000001c383b7e680] Opening 'live\channel_5\stream11.ts' for writing
[hls @ 000001c383b7e680] Opening 'live\channel_5\stream.m3u8.tmp' for writing
frame= 3007 fps= 24 q=-1.0 size=N/A time=00:02:05.24 bitrate=N/A speed=   1x elapsed=0:02:04.79    frame= 3019 fps= 24 q=-1.0 size=N/A time=00:02:05.78 bitrate=N/A speed=   1x elapsed=0:02:05.31    frame= 3031 fps= 24 q=-1.0 size=N/A time=00:02:06.28 bitrate=N/A speed=   1x elapsed=0:02:05.82    frame= 3044 fps= 24 q=-1.0 size=N/A time=00:02:06.78 bitrate=N/A speed=   1x elapsed=0:02:06.35    frame= 3056 fps= 24 q=-1.0 size=N/A time=00:02:07.34 bitrate=N/A speed=   1x elapsed=0:02:06.85    frame= 3068 fps= 24 q=-1.0 size=N/A time=00:02:07.84 bitrate=N/A speed=   1x elapsed=0:02:07.37    frame= 3081 fps= 24 q=-1.0 size=N/A time=00:02:08.38 bitrate=N/A speed=   1x elapsed=0:02:07.88    frame= 3093 fps= 24 q=-1.0 size=N/A time=00:02:08.88 bitrate=N/A speed=   1x elapsed=0:02:08.40    [hls @ 000001c383b7e680] Opening 'live\channel_5\stream12.ts' for writing
[hls @ 000001c383b7e680] Opening 'live\channel_5\stream.m3u8.tmp' for writing
frame= 3106 fps= 24 q=-1.0 size=N/A time=00:02:09.36 bitrate=N/A speed=   1x elapsed=0:02:08.91    frame= 3119 fps= 24 q=-1.0 size=N/A time=00:02:09.92 bitrate=N/A speed=   1x elapsed=0:02:09.43    frame= 3132 fps= 24 q=-1.0 size=N/A time=00:02:10.42 bitrate=N/A speed=   1x elapsed=0:02:09.94    frame= 3144 fps= 24 q=-1.0 size=N/A time=00:02:10.92 bitrate=N/A speed=   1x elapsed=0:02:10.46    frame= 3156 fps= 24 q=-1.0 size=N/A time=00:02:11.46 bitrate=N/A speed=   1x elapsed=0:02:10.98    frame= 3168 fps= 24 q=-1.0 size=N/A time=00:02:11.96 bitrate=N/A speed=   1x elapsed=0:02:11.49    frame= 3181 fps= 24 q=-1.0 size=N/A time=00:02:12.50 bitrate=N/A speed=   1x elapsed=0:02:12.01    frame= 3193 fps= 24 q=-1.0 size=N/A time=00:02:13.00 bitrate=N/A speed=   1x elapsed=0:02:12.52    frame= 3205 fps= 24 q=-1.0 size=N/A time=00:02:13.50 bitrate=N/A speed=   1x elapsed=0:02:13.04    frame= 3218 fps= 24 q=-1.0 size=N/A time=00:02:14.04 bitrate=N/A speed=   1x elapsed=0:02:13.55    frame= 3230 fps= 24 q=-1.0 size=N/A time=00:02:14.54 bitrate=N/A speed=   1x elapsed=0:02:14.07    frame= 3243 fps= 24 q=-1.0 size=N/A time=00:02:15.08 bitrate=N/A speed=   1x elapsed=0:02:14.58    frame= 3255 fps= 24 q=-1.0 size=N/A time=00:02:15.58 bitrate=N/A speed=   1x elapsed=0:02:15.10    